{"title":"Stranded.2013.BRRip XViD juggs","uid":8508251,"size":738046117,"categoryP":"video","categoryS":"movies","magnet":"?xt=urn:btih:1883c3b2637dff1716164c04cefe00f2d6d6e884&amp;dn=Stranded.2013.BRRip+XViD+juggs&amp;tr=udp%3A%2F%2Ftracker.openbittorrent.com%3A80&amp;tr=udp%3A%2F%2Fopen.demonii.com%3A1337&amp;tr=udp%3A%2F%2Ftracker.coppersurfer.tk%3A6969&amp;tr=udp%3A%2F%2Fexodus.desync.com%3A6969","seeders":10,"leechers":0,"uploader":"juggs99","files":3,"time":1369490511,"description":"Source : ROVERS(Thanks)\n &lt;a href=&quot;\nhttp://www.imdb.com/title/tt2268573/&quot; rel=&quot;nofollow&quot; target=&quot;_NEW&quot;&gt;\nhttp://www.imdb.com/title/tt2268573/&lt;/a&gt;\n\nFormat                                   : AVI\nFormat/Info                              : Audio Video Interleave\nFile size                                : 696 MiB\nDuration                                 : 1h 27mn\nOverall bit rate                         : 1 109 Kbps\nWriting library                          : VirtualDub build 32842/release\n\nVideo\nID                                       : 0\nFormat                                   : MPEG-4 Visual\nFormat profile                           : Advanced Simple@L5\nFormat settings, BVOP                    : 2\nFormat settings, QPel                    : No\nFormat settings, GMC                     : No warppoints\nFormat settings, Matrix                  : Default (H.263)\nMuxing mode                              : Packed bitstream\nCodec ID                                 : XVID\nCodec ID/Hint                            : XviD\nDuration                                 : 1h 27mn\nBit rate                                 : 971 Kbps\nWidth                                    : 640 pixels\nHeight                                   : 272 pixels\nDisplay aspect ratio                     : 2.35:1\nFrame rate                               : 23.976 fps\nColor space                              : YUV\nChroma subsampling                       : 4:2:0\nBit depth                                : 8 bits\nScan type                                : Progressive\nCompression mode                         : Lossy\nBits/(Pixel*Frame)                       : 0.233\nStream size                              : 610 MiB (88%)\nWriting library                          : XviD 64\n\nAudio\nID                                       : 1\nFormat                                   : MPEG Audio\nFormat version                           : Version 1\nFormat profile                           : Layer 3\nCodec ID                                 : 55\nCodec ID/Hint                            : MP3\nDuration                                 : 1h 27mn\nBit rate mode                            : Constant\nBit rate                                 : 128 Kbps\nChannel(s)                               : 2 channels\nSampling rate                            : 44.1 KHz\nCompression mode                         : Lossy\nStream size                              : 80.3 MiB (12%)\nAlignment                                : Split accross interleaves\nInterleave, duration                     : 42 ms (1.00 video frame)\nInterleave, preload duration             : 500 ms\nWriting library                          : LAME3.99r\nEncoding settings                        : -m s -V 4 -q 3 -lowpass 17 -b 128\n\nPlot\nFour isolated astronauts on board a bio-dome space craft, experience a ghostly intercession after a meteor storm, leading to paranoia, fear and death. \n &lt;a href=&quot;\nhttp://www.shotpix.com/images/10963035702243132810.png&quot; rel=&quot;nofollow&quot; target=&quot;_NEW&quot;&gt;\nhttp://www.shotpix.com/images/10963035702243132810.png&lt;/a&gt; &lt;a href=&quot;\nhttp://www.shotpix.com/images/47278435201688419295.png&quot; rel=&quot;nofollow&quot; target=&quot;_NEW&quot;&gt;\nhttp://www.shotpix.com/images/47278435201688419295.png&lt;/a&gt; &lt;a href=&quot;\nhttp://www.shotpix.com/images/92541356645861561278.png&quot; rel=&quot;nofollow&quot; target=&quot;_NEW&quot;&gt;\nhttp://www.shotpix.com/images/92541356645861561278.png&lt;/a&gt;","torrent":{"xt":"urn:btih:1883c3b2637dff1716164c04cefe00f2d6d6e884","amp;dn":"Stranded.2013.BRRip+XViD+juggs","amp;tr":["udp%3A%2F%2Ftracker.openbittorrent.com%3A80","udp%3A%2F%2Fopen.demonii.com%3A1337","udp%3A%2F%2Ftracker.coppersurfer.tk%3A6969","udp%3A%2F%2Fexodus.desync.com%3A6969"],"infoHash":"1883c3b2637dff1716164c04cefe00f2d6d6e884","infoHashBuffer":{"type":"Buffer","data":[24,131,195,178,99,125,255,23,22,22,76,4,206,254,0,242,214,214,232,132]},"announce":[],"urlList":[]}}